<?xml version="1.0" standalone="no"?>
<!DOCTYPE svg PUBLIC "-//W3C//DTD SVG 20010904//EN"
 "http://www.w3.org/TR/2001/REC-SVG-20010904/DTD/svg10.dtd">
<svg version="1.0" xmlns="http://www.w3.org/2000/svg"
 width="1024.000000pt" height="1024.000000pt" viewBox="0 0 1024.000000 1024.000000"
 preserveAspectRatio="xMidYMid meet">

<g transform="translate(0.000000,1024.000000) scale(0.100000,-0.100000)"
fill="#000000" stroke="none">
<path d="M3002 5530 c0 -14 2 -19 5 -12 2 6 2 18 0 25 -3 6 -5 1 -5 -13z"/>
<path d="M2990 5492 c0 -26 -41 -254 -54 -295 -7 -25 -11 -48 -8 -51 3 -4 0
-6 -7 -6 -7 0 -10 -4 -7 -8 3 -5 -2 -21 -10 -37 -8 -16 -13 -34 -10 -41 3 -7
-4 -22 -14 -34 -10 -12 -22 -40 -25 -63 -4 -23 -12 -53 -18 -67 -12 -31 -13
-32 -32 -110 -2 -8 -4 -15 -6 -15 -1 0 -3 -9 -5 -20 -29 -162 -37 -220 -38
-272 -1 -33 -5 -59 -10 -56 -4 3 -6 -7 -3 -23 4 -16 9 -60 12 -99 3 -38 8 -83
11 -100 2 -16 7 -52 9 -79 2 -27 8 -52 12 -55 4 -3 8 -19 8 -36 -1 -16 4 -35
11 -42 6 -6 12 -35 13 -63 0 -33 8 -64 21 -85 11 -18 20 -42 20 -53 0 -12 4
-31 9 -44 11 -27 21 -57 20 -61 0 -1 20 -42 45 -92 25 -49 46 -95 46 -102 0
-7 9 -17 20 -23 11 -6 20 -18 20 -27 0 -8 10 -24 22 -34 11 -11 17 -19 12 -20
-5 0 1 -4 14 -10 13 -5 20 -13 17 -19 -3 -6 0 -13 9 -16 8 -3 19 -19 25 -35 6
-17 17 -29 27 -29 10 0 15 -3 11 -6 -13 -13 134 -160 156 -156 10 2 17 -3 17
-10 0 -7 9 -19 20 -26 11 -7 20 -19 20 -28 0 -8 4 -12 10 -9 14 8 70 -26 70
-43 0 -7 5 -10 10 -7 6 3 10 0 10 -7 0 -9 3 -9 10 2 7 12 10 12 10 1 0 -7 6
-11 15 -7 10 3 15 -1 15 -12 0 -16 26 -32 77 -46 11 -4 24 -13 27 -21 3 -8 14
-15 24 -15 11 0 43 -13 73 -29 46 -24 80 -37 111 -41 4 -1 22 -6 40 -11 18 -6
47 -13 63 -15 17 -3 46 -9 65 -14 19 -5 62 -12 95 -16 33 -3 63 -8 67 -10 10
-7 186 -16 283 -16 158 1 381 15 435 27 19 4 46 9 60 11 84 10 208 32 268 49
9 2 44 12 77 20 33 9 67 18 75 20 83 22 512 166 508 170 -2 2 -53 -9 -113 -26
-236 -63 -317 -74 -590 -73 -214 0 -267 3 -370 22 -371 67 -660 191 -937 400
-99 75 -258 222 -258 238 0 6 -27 35 -60 65 -33 30 -67 69 -75 87 -9 17 -20
32 -25 32 -4 0 -18 15 -29 33 -11 18 -32 46 -46 62 -30 35 -146 238 -194 340
-75 159 -159 458 -182 650 -16 128 -16 412 0 538 7 55 10 101 7 105 -3 3 -6 0
-6 -6z"/>
</g>
</svg>
